<svg xmlns:xlink="http://www.w3.org/1999/xlink" width="84" height="98" viewBox="0 0 12 14" fill="none" xmlns="http://www.w3.org/2000/svg">
                                    <path d="M1.84184 5.61685C2.07573 5.61685 2.28037 5.57964 2.45579 5.50523C2.63652 5.43081 2.78801 5.32981 2.91027 5.20224C3.03253 5.07467 3.12555 4.92583 3.18934 4.75573C3.25312 4.59095 3.29033 4.41554 3.30096 4.22949H2.50363C2.23253 4.22949 2.00928 4.20026 1.83387 4.14179C1.65845 4.08331 1.52025 3.99827 1.41925 3.88664C1.31826 3.77501 1.2465 3.64212 1.20397 3.48797C1.16677 3.32851 1.14816 3.15043 1.14816 2.95376C1.14816 2.75177 1.1774 2.56041 1.23587 2.37968C1.29434 2.19895 1.37939 2.03948 1.49101 1.90128C1.60264 1.76307 1.74085 1.6541 1.90563 1.57437C2.07573 1.48932 2.26974 1.4468 2.48768 1.4468C2.66309 1.4468 2.83054 1.47603 2.99 1.5345C3.14947 1.59298 3.29033 1.686 3.41259 1.81357C3.53485 1.93583 3.63053 2.09795 3.69963 2.29994C3.77405 2.49662 3.81126 2.73582 3.81126 3.01755V3.67933H4.5767C4.64048 3.67933 4.68301 3.70325 4.70427 3.75109C4.73085 3.79362 4.74414 3.86006 4.74414 3.95043C4.74414 4.04611 4.73085 4.11787 4.70427 4.16571C4.68301 4.20823 4.64048 4.22949 4.5767 4.22949H3.79531C3.78468 4.48995 3.73152 4.73713 3.63584 4.97101C3.54548 5.2049 3.4179 5.40955 3.25312 5.58496C3.08834 5.76037 2.89166 5.89858 2.66309 5.99957C2.43453 6.10588 2.17672 6.15904 1.88968 6.15904H1.04451L0.996668 5.61685H1.84184ZM1.64251 2.92187C1.64251 3.05475 1.6558 3.16904 1.68237 3.26472C1.71427 3.3604 1.76477 3.44013 1.83387 3.50392C1.90829 3.56239 2.00662 3.60757 2.12888 3.63947C2.25114 3.66604 2.40529 3.67933 2.59133 3.67933H3.30894V3.08133C3.30894 2.68798 3.23186 2.40626 3.07771 2.23616C2.92356 2.06606 2.71093 1.98101 2.43984 1.98101C2.18469 1.98101 1.98802 2.06606 1.84981 2.23616C1.71161 2.40626 1.64251 2.63483 1.64251 2.92187ZM5.89435 3.67933C5.96345 3.67933 6.00864 3.70325 6.0299 3.75109C6.05648 3.79362 6.06976 3.86006 6.06976 3.95043C6.06976 4.04611 6.05648 4.11787 6.0299 4.16571C6.00864 4.20823 5.96345 4.22949 5.89435 4.22949H4.57875C4.50965 4.22949 4.46447 4.20823 4.4432 4.16571C4.41663 4.12318 4.40334 4.05674 4.40334 3.96637C4.40334 3.87069 4.41663 3.79893 4.4432 3.75109C4.46447 3.70325 4.50965 3.67933 4.57875 3.67933H5.89435ZM7.21026 3.67933C7.27937 3.67933 7.32455 3.70325 7.34581 3.75109C7.37239 3.79362 7.38568 3.86006 7.38568 3.95043C7.38568 4.04611 7.37239 4.11787 7.34581 4.16571C7.32455 4.20823 7.27937 4.22949 7.21026 4.22949H5.89466C5.82556 4.22949 5.78038 4.20823 5.75912 4.16571C5.73254 4.12318 5.71925 4.05674 5.71925 3.96637C5.71925 3.87069 5.73254 3.79893 5.75912 3.75109C5.78038 3.70325 5.82556 3.67933 5.89466 3.67933H7.21026ZM8.52617 3.67933C8.59528 3.67933 8.64046 3.70325 8.66172 3.75109C8.6883 3.79362 8.70159 3.86006 8.70159 3.95043C8.70159 4.04611 8.6883 4.11787 8.66172 4.16571C8.64046 4.20823 8.59528 4.22949 8.52617 4.22949H7.21057C7.14147 4.22949 7.09629 4.20823 7.07503 4.16571C7.04845 4.12318 7.03516 4.05674 7.03516 3.96637C7.03516 3.87069 7.04845 3.79893 7.07503 3.75109C7.09629 3.70325 7.14147 3.67933 7.21057 3.67933H8.52617ZM9.84209 3.67933C9.91119 3.67933 9.95637 3.70325 9.97763 3.75109C10.0042 3.79362 10.0175 3.86006 10.0175 3.95043C10.0175 4.04611 10.0042 4.11787 9.97763 4.16571C9.95637 4.20823 9.91119 4.22949 9.84209 4.22949H8.52649C8.45738 4.22949 8.4122 4.20823 8.39094 4.16571C8.36436 4.12318 8.35107 4.05674 8.35107 3.96637C8.35107 3.87069 8.36436 3.79893 8.39094 3.75109C8.4122 3.70325 8.45738 3.67933 8.52649 3.67933H9.84209ZM10.56 3.67933C10.7673 3.67933 10.9321 3.62352 11.0543 3.51189C11.1819 3.40027 11.2457 3.24611 11.2457 3.04944V1.94912H11.764V3.04944C11.764 3.42684 11.6577 3.7192 11.445 3.92651C11.2377 4.1285 10.9533 4.22949 10.5919 4.22949H9.8424C9.7733 4.22949 9.72811 4.20823 9.70685 4.16571C9.68027 4.12318 9.66698 4.05674 9.66698 3.96637C9.66698 3.87069 9.68027 3.79893 9.70685 3.75109C9.72811 3.70325 9.7733 3.67933 9.8424 3.67933H10.56ZM11.8437 0.928531H11.2058V0.362424H11.8437V0.928531ZM10.8311 0.928531H10.1932V0.362424H10.8311V0.928531ZM5.39795 11.07C5.39795 11.3571 5.35277 11.6255 5.2624 11.8753C5.17204 12.1305 5.04181 12.3511 4.87171 12.5371C4.70161 12.7285 4.4943 12.88 4.24979 12.9916C4.01059 13.1032 3.7395 13.159 3.43651 13.159H2.96608C2.37074 13.159 1.90829 12.9757 1.57872 12.6089C1.24916 12.2421 1.08437 11.7398 1.08437 11.1019V9.70659H1.59467V11.086C1.59467 11.3145 1.62125 11.5218 1.6744 11.7079C1.73287 11.8939 1.82058 12.0534 1.93752 12.1863C2.05978 12.3245 2.21127 12.4308 2.392 12.5052C2.57273 12.5796 2.79067 12.6169 3.04582 12.6169H3.39664C3.64647 12.6169 3.86441 12.5743 4.05046 12.4893C4.2365 12.4095 4.39065 12.3006 4.51291 12.1624C4.64048 12.0242 4.7335 11.862 4.79198 11.676C4.85576 11.49 4.88766 11.2959 4.88766 11.0939V8.94912H5.39795V11.07ZM3.47638 8.7737H2.80662V8.19165H3.47638V8.7737ZM7.45856 11.2295C7.32035 11.2295 7.18746 11.2109 7.05989 11.1737C6.93232 11.1312 6.81803 11.0621 6.71704 10.9664C6.62136 10.8707 6.54428 10.7458 6.48581 10.5916C6.42734 10.4322 6.3981 10.2355 6.3981 10.0016V6.28602H6.91637V9.90592C6.91637 10.1292 6.96421 10.3152 7.05989 10.4641C7.16089 10.6076 7.32301 10.6793 7.54626 10.6793H7.68181C7.79875 10.6793 7.85722 10.7697 7.85722 10.9504C7.85722 11.1365 7.79875 11.2295 7.68181 11.2295H7.45856ZM7.81312 10.6793C8.02043 10.6793 8.17724 10.6288 8.28355 10.5278C8.38986 10.4268 8.44302 10.2913 8.44302 10.1212V9.81821C8.44302 9.35576 8.55996 8.9943 8.79384 8.73384C9.03304 8.47338 9.36261 8.34314 9.78254 8.34314C10.0005 8.34314 10.1918 8.3777 10.3566 8.4468C10.5214 8.5159 10.6569 8.61424 10.7633 8.74181C10.8749 8.86938 10.9573 9.02088 11.0104 9.19629C11.0636 9.3717 11.0902 9.56572 11.0902 9.77835C11.0902 10.2355 10.9706 10.5916 10.7314 10.8468C10.4922 11.1019 10.1653 11.2295 9.75064 11.2295C9.53802 11.2295 9.33337 11.1896 9.1367 11.1099C8.94002 11.0248 8.78587 10.876 8.67424 10.6634C8.6264 10.7856 8.56793 10.884 8.49883 10.9584C8.42973 11.0328 8.35797 11.0913 8.28355 11.1338C8.20913 11.171 8.1294 11.1976 8.04435 11.2135C7.96462 11.2242 7.88754 11.2295 7.81312 11.2295H7.68555C7.61645 11.2295 7.57126 11.2082 7.55 11.1657C7.52342 11.1232 7.51013 11.0567 7.51013 10.9664C7.51013 10.8707 7.52342 10.7989 7.55 10.7511C7.57126 10.7033 7.61645 10.6793 7.68555 10.6793H7.81312ZM10.5799 9.82619C10.5799 9.54978 10.5187 9.32652 10.3965 9.15642C10.2742 8.98101 10.0643 8.8933 9.76659 8.8933C9.21377 8.8933 8.93736 9.2149 8.93736 9.85808C8.93736 10.1292 9.01178 10.3338 9.16062 10.472C9.31477 10.6102 9.51144 10.6793 9.75064 10.6793C10.0217 10.6793 10.2264 10.6049 10.3646 10.4561C10.5081 10.3072 10.5799 10.0973 10.5799 9.82619Z" fill="#777777"></path>
                                </svg>